<svg version="1.2" xmlns="http://www.w3.org/2000/svg" viewBox="0 0 375 117" width="375" height="117"><style>.a{fill:#050505}</style><path fill-rule="evenodd" class="a" d="m312.5 115.8c0 0 60.7-14.7 61.8-45.9 1.2-32.9-40.5-30.8-40.5-30.8l-10.6 24c0 0 30 0.8 25.7 9.5-3 6-30.2 15.1-30.2 15.1l-15.2-48.9-133.7-0.6v23.8l124.7-1.6c0 0-124.5 37.7-136.1 29.4-6.2-4.4-16-51.6-16-51.6l-46.4 36.4c0 0 17.3-26.6-12.7-34.5-26.7-7.1-59 3-59 3l14.2-26.4-14.4-16.7-23.4 50.4c0 0 3.9 20.7 4.5 23.2 3.9-0.3 96.4-40.6 70.6-16.8-12.3 11.2-56.8 23.9-75.1 31.6 1.3 4.1 7.8 27.4 7.8 27.4l76.2-29.7 8.8 29.5 45.1-34.4c0 0 7.6 31 16.9 34.8 19.9 7.9 146.9-33.9 146.9-33.9z"/></svg>