<svg version="1.2" xmlns="http://www.w3.org/2000/svg" viewBox="0 0 604 46" width="604" height="46">
	<title>-e-efdas</title>
	<style>
		.s0 { fill: #050505 } 
	</style>
	<path id="-e-efdas" fill-rule="evenodd" class="s0" d="m10.9 25.2l6.7 0.1 4.5-0.5 2.9-0.6 1.6-0.5 0.7-0.8-0.2-1.1-0.8-0.9-0.9-0.6-0.6-0.6-0.3-0.8 1.6-3.2 1.3-1.5 1.3 0.1 1.3 1.4 0.9 2.1 0.2 2.3v2.2l-0.6 2.1-1 1.8-1.4 1.7-1.7 1.2-3.1 1.1-3.3 1-3.8 0.4h-4.8l-3.2-0.6-2.8-0.5-2.5-1.5-1.8-2.4-0.6-2.7v-2.1l0.4-2 0.9-2 1.1-0.7 1.1 0.5 0.1 1-0.2 1.4 0.3 1.7 0.7 1.5 2.4 1.3 1.8 0.4zm3.2 14.7q-0.5-0.6-0.8-1.1-0.3-0.5 0-1.1 0.3-0.7 0.9-1.3 0.7-0.5 1.3-0.8 0.5-0.3 1.1-0.1 0.6 0.3 1.2 0.9 0.6 0.5 0.8 1.1 0.3 0.5 0.1 1.1-0.1 0.6-0.7 1.2-0.7 0.6-1.3 0.8-0.7 0.3-1.3 0.1-0.7-0.3-1.3-0.8zm28.8-13.3l-0.3-1.5 0.9-2.7 2-3.8 1.8-2.2 1.6-1.1h1.5l1.9 0.6 1.3 1.8 0.7 2.4 0.4 2.4v1.1l0.3 1 1.2 0.2h0.5l0.3 1.3 0.1 2.5v1.8l-0.2 0.9-1 0.4-1.9-0.1-1-0.1-0.4 0.2-0.8 2.2-0.9 1.9-1.2 1.8-1.6 1.1-1.8 1.2-1.8 0.6h-0.9l-1.3-0.3-3.1-1.2-3.1-1.4-1.4-1.3-0.2-0.9 0.3-0.6 0.8-0.6 1.8-0.1 3-0.1 3.8-0.5 3.4-1.3 1.3-1-0.1-0.5-0.6-0.4-1.9-0.6-1.7-0.7-1-1zm3.4-4.4l0.7 1 1.4 0.8 1.3 0.3 1.3 0.2h0.3l-0.2-1.4-0.7-1.1-1-0.5-1.3-0.2-1.1 0.2zm12.5-2.2l-0.2-0.8q0.9-2.9 1.6-4 0.8-1.1 1.9-1.8 1.1-0.7 3.7-0.6l3.7 0.8 2.8 1.1 2.6 0.6 3.1 0.9h2.7l1.8 0.1 0.6 1.3 0.1 2-0.3 2-0.7 0.9-1.5 0.2-3.6 0.3-1.6 0.6-0.8 0.7-2 1.7-1.9 1.4-2.7 1.5-2.1 1.2-2.6 1-1.7 0.4-1.8 0.1-1.2-0.1-1.1-0.2-0.2-2.4v-2.2l0.1-1.6 1.2-0.3h2l2.8-0.2 2-0.7 2.2-0.9 1.7-1 1.2-0.8 0.7-0.8-2.7-0.5-2.7-0.5-2.9-0.5h-1.2l-1.4 0.6-0.8 0.9zm9.3 14.7q-0.6-0.5-0.9-1.1-0.3-0.5 0-1.1 0.3-0.7 0.9-1.2 0.6-0.6 1.3-0.9 0.6-0.3 1.1 0 0.6 0.2 1.2 0.8 0.6 0.5 0.9 1.1 0.2 0.6 0 1.1-0.2 0.6-0.8 1.2-0.6 0.6-1.2 0.9-0.6 0.3-1.3 0-0.7-0.3-1.2-0.8zm2.7 4.2q-0.5-0.5-0.8-1-0.3-0.5 0-1.2 0.2-0.6 0.9-1.2 0.6-0.5 1.2-0.8 0.6-0.3 1.2-0.1 0.6 0.3 1.2 0.8 0.6 0.6 0.8 1.1 0.3 0.6 0.1 1.2-0.2 0.5-0.8 1.1-0.6 0.7-1.2 0.9-0.7 0.3-1.4 0-0.7-0.2-1.2-0.8zm3-4.2q-0.5-0.5-0.8-1.1-0.3-0.5-0.1-1.1 0.3-0.7 0.9-1.2 0.7-0.6 1.3-0.9 0.6-0.3 1.2 0 0.5 0.2 1.1 0.8 0.6 0.5 0.9 1.1 0.2 0.6 0 1.1-0.1 0.6-0.7 1.2-0.7 0.6-1.3 0.9-0.6 0.3-1.3 0-0.7-0.3-1.2-0.8zm30.9-7.6h3.2l2.9-0.6 2.8-0.6 2.8-1.1 2-1.3 1.2-1.5 0.7-0.3 0.9 0.2 0.3 1 0.4 0.8 0.4 0.7h0.7l0.3 0.7v4.3 1.3l-0.3 0.5-0.9 0.3-1.3-0.2-0.8-0.5-0.5-0.6-0.4-1-0.6-0.1-1.4 0.9-2.4 1.6-2.9 1.3-2.1 0.5-2.4 0.4-3.2 0.1-2.8-0.1-2.7-0.8-1.8-1-1.7-1.5-1.1-2.3-0.3-2.2 0.3-2.3 1-2.2 1.2-1.8 0.7-0.3 0.5 0.7 0.1 0.7-0.2 1-0.1 1.4 0.4 1.6 1.4 1.2 2.3 0.7zm-2.5-10q-0.6-0.5-0.8-1-0.3-0.5-0.1-1.2 0.3-0.6 0.9-1.2 0.7-0.6 1.3-0.9 0.6-0.3 1.2 0 0.5 0.3 1.1 0.8 0.6 0.5 0.9 1.1 0.2 0.6 0 1.2-0.1 0.5-0.7 1.1-0.7 0.6-1.3 0.9-0.6 0.3-1.3 0-0.7-0.2-1.2-0.8zm5.7 0q-0.5-0.5-0.8-1-0.3-0.5-0.1-1.2 0.3-0.6 0.9-1.2 0.7-0.6 1.3-0.9 0.6-0.3 1.2 0 0.6 0.3 1.2 0.8 0.6 0.5 0.8 1.1 0.2 0.6 0.1 1.2-0.2 0.5-0.8 1.1-0.6 0.6-1.3 0.9-0.6 0.3-1.3 0-0.7-0.2-1.2-0.8zm15.7 8.9l0.2-0.9 0.5-0.3 1.2-0.2 1.5 0.2 1.3-0.3 0.8-0.6 0.4-0.5-0.1-0.5-1.1-0.7-1.1-0.3-1.4-0.9-0.8-0.8 0.2-1.2 1.4-2.2 2.2-1.6 2.7-0.8 2.7-0.1 2.5 1.1 1.4 1.4 0.5 1.8 0.1 1.2-0.7 1.1-1.3 1.4-1.2 0.7-0.9 1.2 0.7 0.5 1.4 0.2h1.7l2.2-0.1 1.1 0.1 0.2 1.2-0.1 1.4 0.1 2.3-0.3 1.4-1.7 0.1-2.2 0.1-1.5-0.3-1.4-1.1-1-1-0.8-1.6-0.5-0.5h-0.7l-0.7 1.1-1.4 1.7-1 0.8-1.6 0.6-1.7 0.3h-1.1l-0.5-0.2-0.2-1.3zm24.4-14.5q-0.5-0.6-0.8-1.1-0.3-0.5-0.1-1.2 0.3-0.6 0.9-1.2 0.7-0.5 1.3-0.8 0.6-0.3 1.2-0.1 0.6 0.3 1.2 0.8 0.6 0.6 0.8 1.1 0.2 0.6 0.1 1.2-0.2 0.5-0.8 1.1-0.6 0.7-1.3 0.9-0.6 0.3-1.3 0-0.7-0.2-1.2-0.7zm-3.9 13.3h1.5l1.2-0.2 1-0.8 1.3-1.2 0.5-1 0.4-1.6 0.6-0.3 0.6 0.2 0.5 0.7 0.2 1.1 0.2 0.9 0.5 1 0.9 0.4 1.6 0.7 1.9 0.1h1.3l0.7 0.2 0.2 0.9 0.1 2.5-0.1 1.7v1.1l-1.3 0.3h-1.2l-1.7-0.3-1.3-0.7-0.9-0.8-0.9-0.7-0.6-0.9-0.2-0.6h-0.3l-0.6 0.7-1 1.2-1.2 0.8-1.2 0.6-1.1 0.4-1.5 0.4-1.2-0.2-0.7-0.2-0.2-1v-1.3l0.1-1.6v-1.8-0.7zm15.6 6.1l-0.1-2.4v-2l0.1-1.6 0.2-0.1 1.3-0.3 1-1.3 0.1-0.8-0.2-1.6v-1.1l0.7-0.4 1.1 0.3 1 1.3 0.9 1.6 1.4 0.8 1.7 0.3 1.1-0.9 2-2.5 2.6-2.2 2.4-1.7 4-2 2.7-0.3 2.3 0.5 1.8 1.3 0.9 1.5 0.3 2.3-0.6 2.9-1.9 3.1-2.2 2.3-1.9 1.4-2.7 1.1-2.3 0.5-2.5 0.1-2.5 0.1-2.2-0.2-2-0.4-1.5-0.6-1.3-0.8-0.9-0.7-0.2 0.1-0.6 1.5-0.9 0.7-1.6 0.7h-0.9zm11.7-6.9l1.7 0.6 2.7 0.2 2.7-0.4 3-0.7 1.5-0.5 0.7-0.8-0.1-0.9-0.8-1-1.7-0.7h-1.8l-2.6 0.5-2 1-2 1.3zm43.6 2.4l0.7-1.9 0.7-1.9 0.9-1.1 1.1-0.4 1 0.5 1.4 0.7 1.6 1.3 0.5 0.5 2.5 0.3h2.4 0.8l0.6 0.3 0.1 1.3 0.1 3.1-0.1 1.8-1 0.2-0.6 0.1h-3.4l-0.2 0.4v1.3l0.2 3-0.2 2.6-1.4 2.8-2 1.9-2.8 1.5-2.7 0.7-3.1 0.5h-2.4l-1.8-0.1-2.3-0.5-2.1-1.1-1.9-1.7-1.3-2.4-0.6-2-0.1-2.3v-2.3l0.4-2.4 0.9-2.6 0.8-1.3 0.8-0.1 1.1 0.5 0.3 0.8v1.4l-0.5 1.6v2.1l0.3 1.5 1 1.7 1.3 1.2 2.6 0.8 3.4 0.4 2.7-0.1 2.6-0.5 2.2-1.2 1.3-1.6 0.8-1.7-0.3-1.8-1.2-1.7-1.6-1.3-1.8-0.5-1.4-0.6-0.5-0.9zm-6.8-8.8q0.5-0.6 1.2-0.8 0.7-0.3 1.3 0 0.7 0.2 1.3 0.8 0.6 0.6 0.8 1.2 0.2 0.6-0.1 1.2-0.3 0.5-0.9 1.1-0.6 0.5-1.1 0.8-0.6 0.2-1.2-0.1-0.6-0.3-1.3-0.8-0.6-0.6-0.9-1.3-0.2-0.6 0.1-1.1 0.3-0.5 0.8-1zm22.7 20.9q-0.5-0.6-0.8-1.1-0.3-0.5-0.1-1.1 0.3-0.7 1-1.3 0.6-0.5 1.2-0.8 0.6-0.3 1.2 0 0.6 0.2 1.2 0.8 0.6 0.5 0.8 1.1 0.3 0.6 0.1 1.1-0.2 0.6-0.8 1.2-0.6 0.6-1.3 0.9-0.6 0.2-1.3 0-0.7-0.3-1.2-0.8zm5.7 0q-0.5-0.6-0.8-1.1-0.3-0.5 0-1.1 0.2-0.7 0.9-1.3 0.6-0.5 1.2-0.8 0.6-0.3 1.2 0 0.6 0.2 1.2 0.8 0.6 0.5 0.8 1.1 0.3 0.6 0.1 1.1-0.2 0.6-0.8 1.2-0.6 0.6-1.2 0.9-0.7 0.2-1.4 0-0.7-0.3-1.2-0.8zm-4.8-21.4l1.3-2 1.3-1.5 0.7-0.3 1.1 0.5 1.4 1.8 0.8 2.4 0.3 3.1-0.1 3.1-0.6 2.3-1 1.9-1.3 1.6-1.5 1.1-1.6 0.3-2.2-0.1-0.2-0.4-0.1-1.4-0.1-1.7 0.1-1.1 0.1-1.3 0.3-0.9 0.8-0.1h0.8l2-0.1 0.7-0.2 0.1-0.6 0.1-0.6-0.3-1.1-1-0.9-1-0.9-0.7-0.9-0.3-0.8zm30.2 6.8v-0.2l0.9 0.3 1.4 0.2 1 0.1 0.3 1.4v-0.4l0.1-0.7 1.8 0.1 1.5-0.1 1.2-0.2 1-0.8 1.3-1.1 0.6-1.1 0.3-1.5 0.7-0.4 0.5 0.2 0.5 0.7 0.3 1.1 0.1 1 0.6 0.9 0.9 0.5 1.5 0.7h1.9l1.3 0.1 0.7 0.2 0.2 0.9 0.1 2.4v1.7l-0.1 1.2-1.3 0.3h-1.2l-1.6-0.4-1.4-0.6-0.8-0.8-1-0.8-0.5-0.8-0.3-0.6h-0.3l-0.6 0.7-1 1.1-1.2 0.9-1.2 0.5-1.1 0.4-1.5 0.4-1.2-0.1-0.6-0.2-0.2-1.1v-0.3l-0.1 0.9-0.4 0.6h-1.8l-0.3-0.1-0.1 0.6-0.9 2.3-1.4 2.5-1.6 2.7-1.9 2.3-1.8 1.5-1.8 0.9h-3.1l-2.7-0.2-2.3-0.3-1.9-0.6-1-0.6-0.1-1.2 1.2-0.7 3-1.1 2.8-1.2 2.8-1.4 2.6-1.3 2.8-2.1 1.6-1.9 0.3-0.8v-0.8l-0.5-0.6-1.2-0.5-1.2-0.5-1-0.8-0.3-0.7 0.1-0.7 0.4-1.2 1.6-2.2 1.3-1.5h0.6l1.3 0.9 1.3 1.8zm7.6-13.4q-0.5-0.6-0.8-1.1-0.3-0.5 0-1.1 0.2-0.7 0.9-1.3 0.6-0.5 1.2-0.8 0.6-0.3 1.2 0 0.6 0.2 1.2 0.8 0.6 0.5 0.8 1.1 0.3 0.6 0.1 1.1-0.2 0.6-0.8 1.2-0.6 0.6-1.2 0.9-0.7 0.2-1.4 0-0.7-0.3-1.2-0.8zm5.7 0q-0.5-0.6-0.8-1.1-0.3-0.5 0-1.1 0.3-0.7 0.9-1.3 0.6-0.5 1.2-0.8 0.6-0.3 1.2 0 0.6 0.2 1.2 0.8 0.6 0.5 0.9 1.1 0.2 0.6 0 1.1-0.2 0.6-0.8 1.2-0.6 0.6-1.2 0.9-0.7 0.2-1.4 0-0.7-0.3-1.2-0.8zm8.8 27.9q-0.5-0.6-0.8-1.1-0.3-0.5-0.1-1.1 0.3-0.7 0.9-1.2 0.7-0.6 1.3-0.9 0.6-0.3 1.2 0 0.5 0.2 1.1 0.8 0.6 0.5 0.9 1.1 0.3 0.6 0.1 1.1-0.2 0.6-0.8 1.2-0.7 0.6-1.3 0.9-0.6 0.3-1.3 0-0.7-0.3-1.2-0.8zm5.7 0q-0.5-0.6-0.8-1.1-0.3-0.5-0.1-1.1 0.3-0.7 0.9-1.2 0.7-0.6 1.3-0.9 0.6-0.3 1.2 0 0.6 0.2 1.2 0.8 0.6 0.5 0.8 1.1 0.3 0.6 0.1 1.1-0.2 0.6-0.8 1.2-0.6 0.6-1.3 0.9-0.6 0.3-1.3 0-0.7-0.3-1.2-0.8zm-4.9-21.3l1.4-2.1 1.3-1.5 0.7-0.2 1 0.4 1.5 1.8 0.8 2.4 0.3 3.1-0.1 3.1-0.6 2.3-1 1.9-1.3 1.6-1.5 1.1-1.6 0.3-2.2-0.1-0.2-0.4-0.2-1.4v-1.7-1.1l0.1-1.3 0.4-0.8 0.8-0.2h0.8l2-0.1 0.7-0.2 0.1-0.6 0.1-0.6-0.3-1.1-1-0.9-1-0.9-0.7-0.9-0.4-0.8zm22.3 7.8l-0.1-0.9 0.4-1.8 1.2-2.4 1.5-2.2 2.3-1.8 2-0.6h1.4l1.2 0.8 0.8 1.9 0.3 2.5v2l-0.3 2.5-0.5 3.1-1.2 3.4-1.8 2.9-2.1 2.1-2.3 1.4-1.6 0.9-1.4 0.3-2.1-0.5-3.5-1.4-2.3-1.7-0.8-0.9-0.1-0.8 0.6-0.6 0.9-0.1 1.6-0.1 4-0.2 3.1-0.5 3.2-1 1.7-1.4 0.5-0.8-0.5-0.4-1.4-0.3-1.9-0.8-1.5-0.9-0.8-0.7zm2.9-3.7l0.6 1 1.5 0.8 1.2 0.3 1.3 0.2h0.4l-0.3-1.4-0.7-1.2-1-0.5-1.3-0.1-1.1 0.2zm18.4-9.6l0.4-1.6 1.3-1.3 1.4-0.6 1.9 0.3 1.1 0.2 1.4 1.8v2.2l-0.9 2.3-0.9 0.7-1.6 0.4h-1.7l-1.5-0.9-0.9-1zm0.4 16.7l0.4-1.7 1.3-1.2 1.4-0.6 1.9 0.2 1.1 0.3 1.4 1.7v2.2l-0.9 2.3-0.9 0.7-1.6 0.4h-1.8l-1.5-0.9-0.8-0.9zm27.6-4.3l0.8 0.7 1.9 0.2 3-0.1 3.5-0.6 4-0.6 2.4-0.8q1.2-1.2 0.7-2.6l-1.2-1.1-1.5-0.5-3.1-0.2-2.2 0.5-3.1 1.1-2.6 1.3-1.8 1.2zm18.7 0.3l0.1 0.1 2.8 0.5 0.1 1.6 0.1 3-0.2 1-0.2 1h-3.5l-2-0.4-2-1-1.4-1.6-1.3 0.6-4.2 1.2-4.2 0.6-4.3 0.4-3.5-0.3-2.9-0.8-2.4-1.3-2.4-1.5-1.7-1.8-0.3-1.3 0.2-0.5 1.7-0.5 1.6 0.3 2.2 0.4 2.4 0.2 1.9 0.1 0.8-0.2 0.8-1.7 0.2-2.3-0.1-4.5-0.6-6-1.1-3.4v-0.8l1.9-2.6 2.2-2.3 1-0.3 0.9 0.5 2 2.6 1.6 2.9 0.2 0.7-0.4 0.9-0.9 0.6-0.7-0.2-0.7-0.3-0.8 0.8-0.3 2.2-0.5 5-0.4 3-0.1 0.8h0.3l3.6-2.6 3.9-2.1 4.3-1.8q3.5-0.7 5.5 0l1.9 1.1 1 1.8 0.4 2.2-0.4 3-1.9 2.9zm5.3 0.5l1.4-0.1 1.3-0.2 1-0.8 1.3-1.1 0.5-1.1 0.3-1.5 0.7-0.3 0.6 0.1 0.5 0.8 0.2 1 0.2 1 0.5 0.9 0.9 0.5 1.6 0.7h1.9l1.2 0.1 0.6 0.1 1.2-0.2h2l2.8-0.3 2-0.7 2.3-0.8 1.6-1.1 1.3-0.8 0.6-0.8-2.6-0.5-2.8-0.5-2.9-0.5h-1.2l-1.3 0.6-0.9 0.9-0.8-0.3-0.2-0.8q0.9-2.9 1.7-4 0.7-1.1 1.8-1.8 1.1-0.7 3.7-0.7l3.7 0.9 2.8 1.1 2.6 0.6 3.1 0.8 2.7 0.1 1.9 0.1 0.5 1.3 0.2 2-0.4 2-0.7 0.9-1.5 0.1h-1.8v0.3l0.7 0.7 1.4 0.5 1.5 0.4h1.2l0.5 1.3v2.8l-0.1 1.6-0.3 0.9-0.8 0.4h-1.7q-1.7-0.4-2.4-0.9-0.8-0.6-1.3-1.4-0.5-0.9-1.2-2.8l-0.2-1.9-0.3-0.9h-0.4l-0.8 0.6-2 1.8-1.9 1.3-2.7 1.6-2.1 1.1-2.5 1.1-1.8 0.3-1.8 0.1-1.7-0.1-0.4-0.1-1.2 0.3h-1.2l-1.7-0.4-1.4-0.6-0.8-0.8-0.9-0.8-0.6-0.8-0.3-0.6h-0.3l-0.6 0.7-0.9 1.1-1.3 0.9-1.1 0.5-1.1 0.4-1.5 0.4-1.2-0.1-0.7-0.2-0.2-1v-1.3-1.7-1.8l0.1-0.7zm2 13.8q-0.5-0.6-0.8-1.1-0.3-0.5 0-1.1 0.2-0.7 0.9-1.3 0.6-0.5 1.3-0.8 0.6-0.3 1.1-0.1 0.6 0.3 1.2 0.8 0.6 0.6 0.8 1.2 0.3 0.6 0.1 1.1-0.2 0.6-0.8 1.2-0.6 0.6-1.2 0.9-0.6 0.2-1.3 0-0.7-0.3-1.3-0.8zm5.7 0q-0.5-0.6-0.8-1.1-0.3-0.5 0-1.1 0.3-0.7 0.9-1.3 0.7-0.5 1.3-0.8 0.6-0.3 1.1-0.1 0.6 0.3 1.2 0.8 0.6 0.6 0.9 1.2 0.2 0.6 0 1.1-0.1 0.6-0.7 1.2-0.7 0.6-1.3 0.9-0.6 0.2-1.3 0-0.7-0.3-1.3-0.8zm34.1-12.7l0.2-1.1 1.2-0.2h2l1.9-0.3 0.7-0.5v-1-1.3l0.4-2.1 1.2-1.9 1.5-1 1.5-0.2 1.7 0.3 1.6 0.8 1.3 1.4q1.9 3.1 2 6.3v2.7l-0.5 2.2-0.7 1.2-1 0.9-1.5 0.5-1.8-0.2-1.8-0.8-1.6-1.3-0.8-1-0.4-0.5-0.6 0.3-0.6 0.7-1.5 0.9-1.1 0.5-1.2 0.1h-1.3l-0.6-0.2-0.3-1.1v-2.1zm9.9-4.7l0.1 1.4 0.8 1.9 1.1 1.3 1.4 0.9 1.1 0.1 0.6-0.6 0.1-1.2-0.1-1.5-0.8-1.8-0.9-1.3-1.4-0.9h-1.3l-0.6 0.7zm28.5 4.1h6.7l4.5-0.4 3-0.6 1.5-0.6 0.8-0.7-0.2-1.1-0.8-1-0.9-0.5-0.7-0.6-0.2-0.8 1.5-3.2 1.4-1.5 1.2 0.1 1.4 1.4 0.8 2.1 0.3 2.3v2.2l-0.7 2.1-0.9 1.8-1.4 1.7-1.7 1.1-3.1 1.2-3.4 1-3.7 0.4h-4.8l-3.3-0.6-2.7-0.6-2.5-1.4-1.8-2.4-0.6-2.8v-2l0.4-2 0.9-2 1.1-0.7 1.1 0.5 0.1 1-0.3 1.4 0.3 1.7 0.8 1.5 2.4 1.3 1.8 0.4zm3.2 14.7q-0.5-0.6-0.8-1.1-0.3-0.5 0-1.2 0.2-0.6 0.9-1.2 0.6-0.5 1.2-0.8 0.6-0.3 1.2-0.1 0.6 0.3 1.2 0.8 0.6 0.6 0.8 1.2 0.3 0.5 0.1 1.1-0.2 0.5-0.8 1.2-0.6 0.6-1.2 0.8-0.7 0.3-1.4 0-0.7-0.2-1.2-0.7zm21.6-13.3l-0.2-1.5 0.8-2.7 2-3.8 1.8-2.2 1.6-1.1h1.5l1.9 0.5 1.3 1.9 0.7 2.4 0.4 2.4v1.1l0.3 1 1.2 0.2h0.5l0.3 1.3 0.1 2.5v1.8l-0.2 0.9-0.9 0.3h-2l-0.9-0.1-0.5 0.1-0.8 2.3-0.9 1.9-1.2 1.7-1.6 1.2-1.7 1.2-1.9 0.6h-0.9l-1.3-0.3-3.1-1.2-3.1-1.5-1.4-1.2-0.2-1 0.3-0.5 0.8-0.6 1.8-0.1 3-0.1 3.9-0.5 3.3-1.3 1.3-1-0.1-0.5-0.6-0.4-1.8-0.6-1.7-0.7-1.1-1zm3.5-4.4l0.6 1 1.5 0.8 1.2 0.3 1.3 0.2h0.3l-0.2-1.4-0.7-1.2-1-0.4-1.3-0.2-1.1 0.2zm12.5-2.2l-0.2-0.8q0.9-2.9 1.6-4 0.8-1.1 1.9-1.8 1.1-0.7 3.7-0.6l3.7 0.8 2.8 1.1 2.6 0.6 3.1 0.9h2.7l1.8 0.1 0.6 1.3 0.1 2-0.3 2-0.7 0.9-1.5 0.1-3.6 0.4-1.6 0.6-0.8 0.7-2 1.7-1.9 1.4-2.7 1.5-2.1 1.2-2.5 1-1.8 0.4-1.8 0.1-1.2-0.1-1.1-0.2-0.2-2.4v-2.2l0.1-1.6 1.2-0.3h2l2.8-0.2 2-0.7 2.3-0.9 1.6-1.1 1.2-0.7 0.7-0.9-2.6-0.4-2.8-0.5-2.9-0.5h-1.2l-1.3 0.6-0.9 0.8zm9.3 14.8q-0.6-0.6-0.9-1.1-0.3-0.5 0-1.1 0.3-0.7 0.9-1.3 0.7-0.5 1.3-0.8 0.6-0.3 1.2 0 0.5 0.2 1.1 0.8 0.6 0.5 0.9 1.1 0.2 0.6 0 1.1-0.1 0.6-0.7 1.2-0.7 0.6-1.3 0.9-0.6 0.2-1.3 0-0.7-0.3-1.2-0.8zm2.7 4.2q-0.5-0.5-0.8-1-0.3-0.5 0-1.2 0.3-0.6 0.9-1.2 0.7-0.6 1.3-0.9 0.5-0.2 1.1 0 0.6 0.3 1.2 0.8 0.6 0.6 0.9 1.1 0.2 0.6 0 1.2-0.1 0.5-0.8 1.1-0.6 0.6-1.2 0.9-0.7 0.3-1.4 0-0.7-0.2-1.2-0.8zm3-4.2q-0.5-0.6-0.8-1.1-0.3-0.5-0.1-1.1 0.3-0.7 0.9-1.3 0.7-0.5 1.3-0.8 0.6-0.3 1.2 0 0.6 0.2 1.2 0.8 0.5 0.5 0.8 1.1 0.2 0.6 0.1 1.1-0.2 0.6-0.8 1.2-0.6 0.6-1.3 0.9-0.6 0.2-1.3 0-0.7-0.3-1.2-0.8zm28-7.6h3.2l3-0.6 2.8-0.6 2.8-1.1 1.9-1.3 1.2-1.5 0.8-0.3 0.9 0.2 0.3 1 0.4 0.8 0.4 0.7h0.7l0.3 0.7v4.3l-0.1 1.3-0.2 0.5-1 0.3-1.2-0.2-0.8-0.5-0.5-0.6-0.4-1-0.6-0.1-1.5 0.9-2.3 1.6-2.9 1.3-2.1 0.5-2.5 0.4-3.1 0.1-2.9-0.1-2.6-0.8-1.9-1-1.6-1.6-1.2-2.2-0.2-2.3 0.3-2.3 0.9-2.2 1.2-1.7 0.7-0.3 0.6 0.6 0.1 0.8-0.3 1-0.1 1.4 0.5 1.6 1.3 1.2 2.3 0.7zm-2.5-10q-0.5-0.5-0.8-1-0.3-0.5 0-1.2 0.2-0.7 0.9-1.2 0.6-0.6 1.2-0.9 0.6-0.3 1.2 0 0.6 0.3 1.2 0.8 0.6 0.5 0.8 1.1 0.3 0.6 0.1 1.2-0.2 0.5-0.8 1.1-0.6 0.6-1.2 0.9-0.7 0.3-1.3 0-0.7-0.2-1.3-0.8zm5.7 0q-0.5-0.5-0.8-1-0.3-0.5 0-1.2 0.3-0.7 0.9-1.2 0.7-0.6 1.2-0.9 0.6-0.3 1.2 0 0.6 0.3 1.2 0.8 0.6 0.5 0.9 1.1 0.2 0.6 0 1.2-0.1 0.5-0.8 1.1-0.6 0.6-1.2 0.9-0.7 0.3-1.4 0-0.7-0.2-1.2-0.8zm15.8 11.5l-0.1-1.1v-1.6-1.1l0.5-0.2h1.3l1.2-0.3 0.1-1.2 0.6-2.7 0.6-1.8 1.2-1.7 1.6-1.1 1.6-0.1 2.1 0.6 1.5 1.4 1.4 2.8 1 2 0.3 0.8 0.8 1 1.6 0.2 0.8 0.1 0.3 0.6v0.6l0.1-0.2 0.4-0.9 0.8-0.1 1.5 0.1 1.1-0.3 0.8-0.8 0.2-1.1 0.4-1 0.6-0.2 0.7 0.1 0.8 0.8 0.4 1.3 0.7 1.1 1 0.4 0.9-0.2 0.6-1 0.3-1.4 0.6-1.3 0.4-0.2 0.8 0.2 0.7 1 0.5 1.5 0.6 1.3 1.3 0.4 1.3-0.1 0.9-0.1 0.6-0.6v-0.6l-0.8-0.6-1-0.8-0.2-0.4 0.4-1.7 1-1.4 0.6-0.6h0.7q1.1 0.8 1.5 2.1 0.4 1.4 0.5 4.4-0.4 2.9-0.9 3.8-0.6 1-1.4 1.7-0.8 0.7-2.5 1l-1.5-0.1-1.3-0.4-1.1-0.8-0.7-0.9-0.3 0.3-1.2 1.3-1.4 0.5h-1l-1.4-0.6-1-1.1-0.6-0.4-0.3 0.1-0.8 1.1-1.1 0.9-1.3 0.2-1.1-0.3-0.5-0.4-0.3-1.2-0.1 1.9h-1-0.7l-1.4-0.9-0.7-0.9-0.3-0.1-0.5 0.4-0.4 0.7-1.2 0.8-1.1 0.6h-1.1l-1.1-0.1-0.8-0.6-1.1-0.8-0.8-0.9-0.3-0.5-0.6 0.3-0.8 0.7-0.9 0.8-0.9 0.5h-1.1l-1.1-0.2-0.4-0.8zm7-7.1v1.3l0.6 1.3 1 1 1.2 0.6h1.4l0.6-0.3 0.6-0.8v-1.8l-0.9-1.6-1.4-1.1-1.4-0.5-0.6 0.2-0.7 0.7z"/>
</svg>