<svg version="1.2" xmlns="http://www.w3.org/2000/svg" viewBox="0 0 181 43" width="181" height="43">
	<title>-e-fdas</title>
	<style>
		.s0 { fill: #c04e27 } 
	</style>
	<path id="-e-fdas" fill-rule="evenodd" class="s0" d="m17 27.3q-1.6-0.3-2.9-0.9-1.2-0.5-2.1-1.4-1-0.9-1.7-2.2l-1.2-1.9q-3.4 2-5.1 4.5-1.7 2.5-1.7 5.4 0 2 0.7 3.6 0.7 1.5 1.9 2.6 1.3 1.1 3.1 1.7 1.8 0.7 4 1 2.1 0.4 4.7 0.4 2.5 0 5.3-0.3 0.2 0 0.2 0.1 0.1 0.1 0.1 0.4 0 0.6-0.3 0.7-0.8 0.3-1.8 0.7-1.1 0.3-2.2 0.6-1 0.3-2.1 0.4-1 0.2-1.7 0.2-2.7 0-4.8-0.4-2-0.4-3.5-1.1-1.5-0.8-2.5-1.8-0.9-1-1.5-2.3-0.6-1.2-0.8-2.7-0.2-1.4-0.2-3 0-3.8 1.8-6.9 1.7-3.2 5.2-5.6-0.3-0.3-0.6-0.6-0.4-0.4-0.8-0.6-0.5-0.3-0.9-0.5-0.5-0.1-0.9-0.1-0.3 0-0.5 0.1-0.2 0.2-0.5 0.2-0.4 0-0.4-0.6 0-0.2 0.1-0.5 0-0.4 0.2-0.8 0.1-0.4 0.2-0.8 0.2-0.4 0.5-0.6 0.7-0.5 1.6-1 1-0.4 2.3-0.4 0.9 0 1.9 0.3 1 0.2 1.8 0.6 0.8 0.4 1.4 1 0.5 0.6 0.5 1.2 0 1-0.6 2-0.5 1-1.7 1.8 0.7 1.4 1.6 2.4 0.9 0.9 2 1.6 1.2 0.6 2.6 0.8 1.3 0.3 2.8 0.3 0.3 0 0.5 0 1.4 0 2.4-0.4 1.1-0.5 1.7-1.8 0.4-0.7 0.7-1.4 0.3-0.7 0.7-1.4 0.8-1.9 1.8-2.9 1.1-1 2.3-1 0.9 0 1.6 0.5 0.6 0.5 1.2 1.4 0.6 0.8 1.2 2 0.6 1.1 1.4 2.3 0.4 0.8 0.8 1.3 0.4 0.5 0.8 0.8 0.5 0.3 1.1 0.5 0.6 0.1 1.3 0.1 2.1 0 3.7-0.2 1.6-0.1 2.9-0.4 1.3-0.3 2.5-0.7 1.1-0.5 2.3-0.9 1.1-0.5 2.3-0.9 1.1-0.5 2.5-1v-0.1q-1.3-0.4-2.6-1-1.3-0.5-2.5-1-1.2-0.4-2.5-0.7-1.2-0.3-2.4-0.3-1 0-1.6 0.1-0.6 0.2-0.9 0.4-0.4 0.2-0.6 0.4-0.3 0.2-0.5 0.2-0.1 0-0.2-0.1 0-0.1 0-0.4 0-0.2 0-0.4 0-0.1 0.1-0.2 0.9-1.6 1.9-2.2 1.1-0.6 2.5-0.6 0.8 0 1.6 0.2 0.8 0.1 1.6 0.4 0.8 0.3 1.7 0.6 0.9 0.4 1.9 0.8 1.6 0.7 2.9 1.2 1.3 0.5 2.6 0.8 1.2 0.4 2.3 0.5 1.2 0.2 2.4 0.2 0.2 0 0.2 0.2 0 0.1 0 0.4-0.1 0.2-0.3 0.7-0.7 1.3-1 1.3-0.6 0-1.3-0.2-0.8-0.2-1.6-0.2-0.7 0-1.7 0.3-1 0.3-2.1 0.7-1.1 0.5-2.2 1-1.1 0.6-2.2 1-1.1 0.6-2.4 1.1-1.3 0.5-2.7 0.9-1.5 0.3-3.2 0.5-1.7 0.3-3.7 0.3-0.8 0-1.4-0.2-0.6-0.1-1.1-0.3-0.5-0.3-0.9-0.7-0.5-0.4-0.9-1-0.2 0.5-0.5 1-0.2 0.5-0.5 0.9-0.3 0.3-0.7 0.6-0.3 0.2-0.6 0.2-0.9 0-1.9-0.3-0.9-0.3-1.8-0.9-0.9-0.5-1.7-1.2-0.9-0.7-1.6-1.4-0.5 1-1.1 1.6-0.6 0.7-1.3 1-0.7 0.4-1.4 0.5-0.8 0.2-1.6 0.2-2.1 0-3.7-0.3zm15.7-2.3q0.3 0 0.6-0.4 0.3-0.4 0.3-1-0.1-0.8-0.4-1.6-0.3-0.8-0.8-1.6-0.4-0.8-1-1.3-0.5-0.6-1.2-0.8-0.5 0-1 0.3-0.4 0.3-0.8 0.8-0.4 0.5-0.6 1.1-0.3 0.6-0.5 1.2 0.5 0.7 1.3 1.3 0.7 0.5 1.4 1 0.7 0.4 1.4 0.7 0.7 0.3 1.3 0.3zm18.4 5.5q0.3-0.4 0.6-0.7 0.3-0.3 0.7-0.3 0.2 0 0.5 0.2 0.3 0.1 0.8 0.5 0.5 0.4 0.8 0.7 0.2 0.4 0.2 0.8 0 0.2-0.1 0.5-0.2 0.3-0.5 0.7-0.3 0.5-0.6 0.8-0.4 0.3-0.7 0.3-0.2 0-0.5-0.1-0.4-0.2-0.8-0.6-0.5-0.4-0.7-0.7-0.3-0.4-0.3-0.7 0-0.3 0.2-0.6 0.1-0.4 0.4-0.8zm41.5-18.5q-0.1 0.2-0.3 0.2-0.1 0-0.3-0.3-0.1-0.2-0.3-0.5-0.2-0.3-0.6-0.6-0.4-0.2-1.2-0.2-0.8 0-1.6 0.3-0.8 0.4-1.7 1-0.8 0.6-1.6 1.3-0.8 0.7-1.4 1.5-0.6 0.8-0.9 1.5-0.4 0.8-0.4 1.4 0 0.9 1.3 1.6 1.3 0.7 4.2 1.2 1.3 0.2 2.2 0.5 0.9 0.3 1.5 0.6 0.5 0.4 0.8 1 0.3 0.5 0.3 1.3 0 0.5-0.1 1.1-0.1 0.6-0.3 1.2-0.2 0.6-0.4 1.1-0.2 0.5-0.5 0.7-1.1 1.3-2.7 2.4-1.5 1.2-3.4 2-1.8 0.8-3.9 1.2-2 0.5-4.1 0.5-2.8 0-4.6-0.8-1.8-0.8-2.9-2.1-1.1-1.3-1.5-2.9-0.5-1.5-0.5-3.2 0-1.2 0.2-2.3 0.2-1.2 0.4-2.2 0.3-1 0.7-1.9 0.3-0.9 0.7-1.7 0.2-0.4 0.4-0.6 0.2-0.2 0.6-0.2 0.4 0 0.6 0.1 0.1 0.1 0.1 0.3 0 0.1-0.2 0.8-0.2 0.7-0.6 1.6-0.3 1-0.5 2.1-0.3 1.2-0.3 2.3 0 2 0.6 3.5 0.6 1.4 1.6 2.4 1.1 0.9 2.6 1.4 1.5 0.4 3.3 0.4 1.7 0 3.7-0.5 1.9-0.4 3.7-1.3 1.8-0.8 3.4-1.9 1.5-1.2 2.6-2.5 0-0.2-0.2-0.4-0.2-0.3-0.7-0.5-0.4-0.3-1.3-0.5-0.9-0.3-2.3-0.5-1.4-0.2-2.5-0.5-1.1-0.2-1.8-0.7-0.8-0.5-1.2-1.1-0.4-0.7-0.4-1.7 0-1.2 0.4-2.4 0.5-1.3 1.2-2.5 0.7-1.3 1.7-2.4 1-1.1 2.1-1.9 1.1-0.8 2.3-1.3 1.1-0.5 2.3-0.5 0.6 0 1 0.2 0.5 0.1 0.8 0.4 0.3 0.3 0.5 0.7 0.2 0.3 0.2 0.7 0 0.5-0.3 1.1-0.2 0.6-0.5 1zm6.6 15.1q0 0.1-0.1 0.2 0 0.1-0.3 0.1-0.2 0-0.3-0.1-0.1-0.1-0.1-0.2 0-0.4 0-1 0-0.6 0-1.4 0-1.6-0.2-3.5-0.1-1.8-0.3-3.6-0.1-1.9-0.3-3.7-0.2-1.9-0.3-3.5-0.1-1.7-0.2-3.2-0.1-1.4-0.1-2.5 0-0.5 0.2-1.2 0.2-0.6 0.4-1.1 0.3-0.5 0.5-0.8 0.2-0.3 0.4-0.3 0.1 0 0.2 0.2 0.1 1.5 0.2 3.2 0.1 1.8 0.3 3.7 0.1 1.9 0.3 3.7 0.1 1.9 0.2 3.6 0.1 1.6 0.2 3 0.1 1.4 0.1 2.3 0 2.4-0.3 4-0.2 1.5-0.5 2.1zm10.5 0.3q-0.8-0.1-1.3-0.6l-0.1 0.1q-0.2 1.5-0.6 2.9-0.5 1.4-1.1 2.7-0.7 1.3-1.5 2.4-0.9 1.2-1.9 2-1 0.8-2.1 1.2-1.2 0.5-2.4 0.5-1.2 0-2.7-0.4-1.5-0.4-3.1-1.3-0.2-0.1-0.4-0.2-0.1-0.1-0.2-0.2-0.1-0.2-0.2-0.3 0-0.2 0-0.4 0-0.8 0.4-0.8 0.1 0 0.5 0.2 0.4 0.2 0.9 0.5 0.5 0.2 1.2 0.4 0.6 0.2 1.4 0.2 1.2 0 2.5-0.4 1.2-0.5 2.3-1.2 1.2-0.7 2.2-1.6 1-1 1.7-2 0.8-1 1.2-2.1 0.5-1 0.7-1.9-0.1-0.4-0.5-1-0.4-0.6-1-1.4-0.4-0.5-0.8-1.2-0.5-0.7-0.9-1.5-0.2-0.3-0.2-0.7 0-0.3 0.1-0.8 0.1-0.4 0.3-0.8 0.2-0.4 0.3-0.7 0.2-0.2 0.3-0.2 0.2 0 0.3 0.2 0.1 0.2 0.3 0.5 0.5 1.1 0.9 1.9 0.5 0.8 0.9 1.3 0.5 0.6 1 1.1 0.5 0.4 1.2 0.6 0.6 0.3 1.3 0.4 0.7 0.1 1.5 0.1 1.8 0 3.6-0.4 1.7-0.5 2.9-1.2-0.1-1.3-0.5-2.8-0.5-1.5-1.5-3.2-0.2-0.2-0.3-0.4 0-0.1 0-0.3 0-0.4 0.1-0.8 0.2-0.5 0.4-0.9 0.2-0.4 0.4-0.6 0.2-0.3 0.3-0.3 0.1 0 0.3 0.1 0.1 0 0.4 0.5 0.3 0.5 0.7 1.3 0.3 0.7 0.7 1.6 0.3 0.9 0.5 1.9 0.2 1 0.2 2.1 0 0.9-0.2 1.8-0.2 0.9-0.4 1.6-0.1 0.4-0.3 0.6-0.2 0.3-0.5 0.5-1.3 0.6-3.1 1.1-1.8 0.5-4 0.5-1.3 0-2.1-0.2zm4.5 5.5q0.3-0.4 0.6-0.7 0.3-0.3 0.7-0.3 0.2 0 0.5 0.2 0.3 0.1 0.8 0.5 0.5 0.4 0.7 0.7 0.3 0.4 0.3 0.8 0 0.2-0.2 0.5-0.1 0.3-0.4 0.8-0.3 0.4-0.7 0.7-0.3 0.3-0.7 0.3-0.2 0-0.5-0.1-0.3-0.2-0.8-0.6-0.4-0.3-0.7-0.7-0.2-0.4-0.2-0.7 0-0.3 0.1-0.6 0.2-0.3 0.5-0.8zm28.5 6.6q0.3-0.4 0.6-0.7 0.3-0.2 0.6-0.2 0.2 0 0.5 0.1 0.3 0.2 0.7 0.5 0.9 0.6 0.9 1.3 0 0.2-0.1 0.5-0.1 0.3-0.4 0.7-0.3 0.4-0.6 0.7-0.3 0.2-0.7 0.2-0.1 0-0.4-0.1-0.3-0.1-0.7-0.5-0.5-0.3-0.7-0.6-0.2-0.4-0.2-0.7 0-0.2 0.1-0.5 0.1-0.3 0.4-0.7zm4.2-0.3q0.3-0.4 0.6-0.7 0.3-0.2 0.6-0.2 0.2 0 0.5 0.1 0.3 0.1 0.7 0.5 0.9 0.6 0.9 1.3 0 0.2-0.1 0.5-0.1 0.3-0.4 0.7-0.3 0.4-0.6 0.6-0.3 0.3-0.7 0.3-0.2 0-0.5-0.2-0.2-0.1-0.7-0.4-0.4-0.4-0.6-0.7-0.2-0.3-0.2-0.6 0-0.3 0.1-0.6 0.1-0.3 0.4-0.6zm-0.8-15.3q-0.4 0.4-1 0.8-0.7 0.5-1.3 0.6 1.3 0.4 2.3 0.7 1 0.4 1.8 0.9 0.6 0.7 0.6 1.6 0 0.2 0 0.5 0 0.3-0.1 0.5-0.1 0.7-0.4 1.3-0.2 0.6-0.5 1.2-1.3 1.2-2.9 2.3-1.5 1.1-3.4 1.9-1.8 0.8-3.9 1.3-2.1 0.4-4.3 0.4-1.8 0-3.3-0.3-1.4-0.4-2.5-1-1-0.6-1.7-1.5-0.8-0.8-1.2-1.8-0.4-1-0.6-2-0.2-1.1-0.2-2.1 0-1.3 0.1-2.5 0.2-1.1 0.5-2.1 0.3-1.1 0.6-2 0.4-0.9 0.8-1.7 0.2-0.5 0.4-0.6 0.1-0.2 0.6-0.2 0.3 0 0.5 0.1 0.2 0 0.2 0.3 0 0.1-0.2 0.8-0.3 0.6-0.6 1.6-0.3 1-0.5 2.1-0.3 1.2-0.3 2.3 0 1.9 0.6 3.3 0.6 1.5 1.6 2.4 1.1 1 2.5 1.5 1.5 0.5 3.4 0.5 1.9 0 3.9-0.5 2-0.4 3.8-1.2 1.8-0.7 3.3-1.7 1.5-0.9 2.4-2-0.2-0.4-0.9-0.8-0.7-0.4-1.9-0.8-1.1-0.3-2.6-0.5-1.5-0.2-3.2-0.4-0.3 0-0.3-0.2 0-0.3 0.5-1.4 0.2-0.6 0.4-0.8 0.2-0.3 0.4-0.3 1.8-0.3 3.2-0.9 1.5-0.5 2.4-1.6-0.1-1.9-0.6-3.8-0.5-1.8-1.7-3.7-0.2-0.2-0.3-0.4 0-0.1 0-0.2 0-0.3 0.1-0.8 0.1-0.4 0.3-0.8 0.2-0.4 0.4-0.7 0.2-0.3 0.3-0.3 0.1 0 0.3 0.1 0.1 0.2 0.3 0.5 0.6 0.8 1.1 1.8 0.5 1 0.9 2.1 0.3 1 0.5 2.1 0.2 1.1 0.2 2.1 0 0.6-0.1 1.2-0.1 0.6-0.2 1.2-0.1 0.5-0.3 0.9-0.1 0.5-0.2 0.7zm7 3.2q-1.1-0.4-1.8-1.3-0.7-0.9-1.1-2.3-0.3-1.4-0.5-3.3-0.3-4-0.5-8-0.2-4.1-0.5-8 0-0.7 0.1-1.3 0.2-0.6 0.5-1.3 0.2-0.6 0.5-0.9 0.2-0.4 0.4-0.4 0.2 0 0.2 0.2 0.2 1 0.3 2.2 0.2 1.3 0.2 2.5l0.7 14.4q0.1 1.4 0.4 2.4 0.4 1 1 1.6 0.6 0.7 1.4 1 0.7 0.3 1.7 0.3 2 0 3.6-0.2 1.6-0.1 2.9-0.4 1.4-0.3 2.5-0.7 1.2-0.5 2.3-0.9 1.1-0.5 2.3-0.9 1.2-0.5 2.5-1v-0.1q-1.3-0.4-2.6-1-1.3-0.5-2.5-1-1.2-0.4-2.4-0.7-1.3-0.3-2.5-0.3-1 0-1.6 0.1-0.6 0.2-0.9 0.4-0.4 0.2-0.6 0.4-0.3 0.2-0.5 0.2-0.1 0-0.2-0.1 0-0.1 0-0.4 0-0.2 0-0.4 0-0.1 0.1-0.2 0.9-1.6 2-2.2 1-0.6 2.5-0.6 0.7 0 1.5 0.2 0.8 0.1 1.6 0.4 0.8 0.3 1.7 0.6 0.9 0.4 1.9 0.8 1.6 0.7 2.9 1.2 1.4 0.5 2.6 0.8 1.2 0.4 2.3 0.5 1.2 0.2 2.4 0.2 0.3 0 0.3 0.2 0 0.1-0.1 0.4-0.1 0.2-0.3 0.7-0.7 1.3-1 1.3-0.6 0-1.3-0.2-0.8-0.2-1.6-0.2-0.7 0-1.7 0.3-1 0.3-2.1 0.7-1.1 0.5-2.2 1-1.1 0.6-2.1 1-1.2 0.6-2.5 1.1-1.2 0.5-2.7 0.9-1.5 0.3-3.2 0.5-1.6 0.3-3.6 0.3-1.6 0-2.7-0.5zm14 3.4q0.3-0.4 0.6-0.7 0.4-0.3 0.7-0.3 0.2 0 0.6 0.2 0.3 0.1 0.7 0.5 0.5 0.4 0.8 0.7 0.2 0.4 0.2 0.8 0 0.2-0.1 0.5-0.1 0.3-0.5 0.7-0.3 0.5-0.6 0.8-0.3 0.3-0.7 0.3-0.2 0-0.5-0.1-0.3-0.2-0.8-0.6-0.5-0.4-0.7-0.7-0.3-0.4-0.3-0.7 0-0.3 0.2-0.6 0.1-0.4 0.4-0.8z"/>
</svg>