<svg version="1.2" xmlns="http://www.w3.org/2000/svg" viewBox="0 0 1185 248" width="1185" height="248">
	<title>-e-eRectangle 1 copy 21</title>
	<style>
		.s0 { fill: #050505 } 
	</style>
	<path id="-e-eRectangle 1 copy 21" class="s0" d="m289.6 68.9v108.1l-50.4 25.3-0.2-26.6h-238.3v-144.8l44.3-11.2-0.2 49.6m319 67.9h-61.4v-44.1-52.4l98.4-0.3v28.8l141.9-0.1-41.8-20.8 15.7-48 70.5 41.3v143l-190 0.8-94.2 60.7-0.6-71.7zm526.4-68.5v90.9l91.9-90.3h160.7v-36.5l42.2-12.9v165.1h-180.6v61.1h-83.8l-0.2-75.3h30.8v-31.7l-113.3 108.5v-63.7h-238.3v-142.6l44-9.9v37.3"/>
</svg>