<svg version="1.2" xmlns="http://www.w3.org/2000/svg" viewBox="0 0 227 71" width="227" height="71">
	<title>-e-efdas</title>
	<style>
		.s0 { fill: #c04e27 } 
	</style>
	<path id="-e-efdas" fill-rule="evenodd" class="s0" d="m188.9 70.2c0 0 36.8-8.9 37.5-27.8 0.7-19.9-24.6-18.6-24.6-18.6l-6.4 14.5c0 0 18.2 0.5 15.6 5.7-1.9 3.7-18.3 9.2-18.3 9.2l-9.2-29.6-81-0.4v14.4l75.5-0.9c0 0-75.4 22.8-82.4 17.8-3.8-2.7-9.7-31.3-9.7-31.3l-28.1 22.1c0 0 10.5-16.2-7.7-21-16.2-4.2-35.7 1.8-35.7 1.8l8.5-15.9-8.6-10.2-14.2 30.6c0 0 2.3 12.5 2.7 14 2.3-0.2 58.4-24.6 42.7-10.1-7.4 6.8-34.3 14.4-45.4 19.1 0.8 2.5 4.7 16.6 4.7 16.6l46.1-18 5.4 17.9 27.3-20.9c0 0 4.6 18.9 10.2 21.1 12.1 4.8 89-20.5 89-20.5z"/>
</svg>