<svg version="1.2" xmlns="http://www.w3.org/2000/svg" viewBox="0 0 529 43" width="529" height="43"><style>.a{fill:#050505}</style><path fill-rule="evenodd" class="a" d="m7.7 19.3l0.9 0.4 1.5 1.2 2.1 1.3 2 0.8 1.9 0.4h1.2l0.4 0.3v1.2l0.2-0.8 0.8-0.6h3.6l1.8-0.2 2.3-0.6 1.7-0.9 0.8-0.7v-0.4h-1.4l-2 0.4h-1.8l-1.8-0.2-1.3-0.5-1.1-0.8-0.7-1-0.1-1 0.4-2.3 0.6-2.1 1.2-2.5 1.9-2.1 1.3-0.3 1.8 0.2 1.9 0.8 1.5 1.6 1.3 2.1 0.6 2.5 0.2 1.9v2.6l-0.4 2.6-0.9 2.5q-1.5 2.6-3.7 3.7l-2 0.6-2.4 0.4h-2.1l-1.3-0.3-0.7-0.3-0.1-0.8-0.1-0.3v1.2l-0.2 0.4h-0.9l-0.4 0.1 0.4 1.5-0.3 1.8-0.5 1.5-1.3 0.9-1.7 0.1-1.9-0.5-1.2-1.4-1-1.4-0.7-1.6-0.4-1.4-0.5-1-0.4-0.1-1.1 0.2-0.9 0.5-0.5 1.1 0.1 2.2 1.1 7.9 0.3 1.3-0.3 0.8-1 0.7h-0.7l-0.9-0.5-0.5-0.5-1.7-10.1-0.4-2.3 0.1-2.2 0.4-1.6 1.1-1.9 1.3-0.9 1.9-0.8 1.2-0.7 1-0.9-0.3-0.9zm1.6 7.7l0.3 1.2 1 1.4 1 0.5 1.5 0.1 1-0.4 0.4-0.6-1.1-1-2-0.9-1.5-0.7zm12.5-12.1l0.3 0.9 0.7 0.7 1.1 0.2 1.4 0.3 1.3-0.3 0.7-0.2v-0.8l-0.9-1.2-1.4-0.7-0.9-0.2-1.3 0.2-0.8 0.3zm-1.5-13.1q0.5-0.5 1.1-0.8 0.7-0.2 1.3 0 0.6 0.3 1.1 0.8 0.6 0.6 0.7 1.1 0.2 0.6 0 1.1-0.3 0.6-0.8 1-0.5 0.5-1.1 0.8-0.5 0.2-1.1-0.1-0.5-0.2-1.1-0.8-0.6-0.5-0.8-1.1-0.3-0.6 0-1.1 0.3-0.4 0.7-0.9zm5.5 0q0.5-0.5 1.1-0.8 0.6-0.2 1.2 0 0.6 0.3 1.2 0.8 0.5 0.6 0.7 1.1 0.1 0.6-0.1 1.1-0.2 0.6-0.8 1-0.5 0.5-1 0.8-0.6 0.2-1.1-0.1-0.6-0.2-1.2-0.8-0.6-0.5-0.8-1.1-0.2-0.6 0-1.1 0.3-0.4 0.8-0.9zm33.7 11.6q1.4 0.7 1.4 1.8v0.4q0 1.8-2.7 3.7-0.6 0.5-0.9 3.2v0.1l0.4 0.3 1-0.1q2.7 0 3.9 3 0 3.6-3.6 4.9h-0.4q-5-1.9-5-4.3l0.2-0.1v-0.2l-0.4-3.2q0.3-2.6 2.7-7l2.5-2.4zm25.3-0.8q1.6 0 3.1 2.3v0.2q0 2.7-2.5 3.5l-0.2-0.1-0.1 0.1h-0.1q-3-1.4-3-2.6v-0.2q0-1.3 2-2.9zm4.3 8.3l0.1-0.8 1-1.7 1.1-1.6 0.7-0.2 1.1 0.6 1.6 2.2 1.1 2.8 0.5 3.3 0.2 3.6-0.6 2.3-1.3 2.4-2 1.8-2.7 1.2-2.4 0.5-2.9 0.2-2.6-0.4-2.4-1.2-1.7-1.7-0.9-2.2-0.4-2.9 0.2-1.9 0.5-2.2 1-1.6 0.6-0.3 0.9 0.3 0.2 0.9-0.2 1.6v1.7l0.6 1.5 1.4 1.4 2 0.8 3 0.1 3-0.3 1.7-0.5 1.6-1.3 0.6-0.9 0.1-1-0.8-1.1-1.4-1.8-1.3-1-1.1-1.3-0.1-0.3zm15.3-11.2l0.1-1.9 1.2-2.1 1.9-1.6 2-1.4h1l0.7 0.8 0.4 2.3 0.1 1.6-0.3 2.8-1.4 17.6-0.5 1.7-1.2 0.2-1.4-0.1-0.9-0.9-0.3-2.2zm22.3 13.2v-0.2l0.8 0.3 1.3 0.2 1 0.1 0.3 1.4v0.4l0.1-0.9 0.2-0.8 0.8-0.1h0.7l1.9-0.1 0.6-0.2 0.1-0.5 0.1-0.6-0.3-1-0.9-0.9-0.9-0.8-0.7-0.8-0.3-0.8 0.1-1.1 1.2-1.8 1.3-1.5 0.6-0.2 1 0.5 1.3 1.6 0.7 2.3 0.3 2.8-0.1 2.9-0.6 2.1-0.8 1.8-1.3 1.5-1.4 1-1.4 0.3-2-0.1-0.2-0.4-0.1-1.3v-0.1l-0.2 1.2-0.4 0.6h-1.6l-0.3-0.1-0.1 0.6-0.8 2.1-1.3 2.4-1.4 2.5-1.7 2.1-1.7 1.4-1.7 0.8h-2.8l-2.4-0.1-2.2-0.3-1.7-0.6-0.9-0.5-0.1-1.2 1.1-0.6 2.7-1 2.6-1.2 2.6-1.3 2.4-1.2 2.5-2 1.4-1.7 0.4-0.8-0.1-0.7-0.4-0.6-1.1-0.4-1.1-0.5-0.9-0.8-0.3-0.6 0.1-0.6 0.3-1.2 1.5-2 1.2-1.3 0.6-0.1 1.1 0.9 1.3 1.6zm4.1 13.5q-0.5-0.5-0.8-1-0.3-0.4 0-1.1 0.2-0.6 0.8-1.1 0.6-0.5 1.2-0.8 0.5-0.3 1 0 0.6 0.2 1.1 0.7 0.6 0.5 0.8 1.1 0.2 0.5 0.1 1-0.2 0.5-0.8 1.1-0.5 0.6-1.1 0.8-0.6 0.3-1.2 0.1-0.7-0.3-1.1-0.8zm5.2 0q-0.5-0.5-0.7-1-0.3-0.4-0.1-1.1 0.3-0.6 0.9-1.1 0.5-0.5 1.1-0.8 0.6-0.3 1.1 0 0.5 0.2 1.1 0.7 0.5 0.5 0.7 1.1 0.3 0.5 0.1 1-0.2 0.5-0.7 1.1-0.6 0.6-1.2 0.8-0.5 0.3-1.2 0.1-0.6-0.3-1.1-0.8zm10.9-26.7l0.2-1.9 1.1-2.1 1.9-1.5 2-1.5h1l0.7 0.8 0.5 2.3 0.1 1.6-0.4 2.8-1.4 17.6-0.5 1.7-1.2 0.3-1.4-0.2-0.9-0.9-0.3-2.1zm27.8 1.6l0.3-1.5 1.3-1.2 1.2-0.5 1.8 0.2 1 0.2 1.3 1.6v2.2l-0.9 2-0.8 0.7-1.5 0.4h-1.5l-1.4-0.8-0.8-1zm0.3 15.5l0.4-1.5 1.2-1.2 1.3-0.5 1.7 0.2 1 0.2 1.3 1.7v2l-0.8 2.2-0.8 0.6-1.5 0.4h-1.6l-1.4-0.8-0.8-0.9zm31.9-4l0.7 0.7 1.8 0.1 2.7-0.1 3.2-0.5 3.6-0.6 2.3-0.7q1.1-1.1 0.6-2.4l-1.1-1.1-1.3-0.4-2.9-0.2-2.1 0.4-2.7 1.1-2.4 1.1-1.7 1.2zm17.2 0.3l0.1 0.1 2.5 0.4 0.1 1.5v2.8l-0.1 1-0.1 0.9h-3.3l-1.8-0.4-1.9-0.9-1.2-1.5-1.2 0.5-3.8 1.2-3.9 0.5-4 0.4-3.2-0.3-2.7-0.8-2.2-1.1-2.1-1.5-1.5-1.7-0.4-1.1 0.2-0.4 1.6-0.5 1.5 0.2 2 0.4 2.1 0.2 1.8 0.1 0.7-0.3 0.7-1.4 0.2-2.2-0.1-4.2-0.5-5.6-1-3.2v-0.7l1.7-2.5 2-2 1-0.4 0.8 0.5 1.8 2.5 1.5 2.7 0.2 0.6-0.4 0.8-0.9 0.6-0.6-0.2-0.6-0.3-0.7 0.8-0.3 2-0.5 4.7-0.3 2.8-0.1 0.7h0.2l3.4-2.4 3.6-2 3.9-1.6q3.1-0.7 5 0l1.7 1 1 1.7 0.4 2-0.4 2.7-1.8 2.8zm4.9 0.4h1.3l1.1-0.2 0.9-0.7 1.2-1.1 0.5-1 0.3-1.4 0.6-0.3 0.5 0.1 0.5 0.7 0.2 1 0.2 0.9 0.5 0.9 0.8 0.4 1.4 0.6 1.8 0.1h1.1l0.7 0.2 0.2 0.8 0.1 2.3-0.1 1.6v1.1l-1.2 0.3h-1.1l-1.5-0.4-1.3-0.6-0.8-0.7-0.8-0.7-0.5-0.8-0.3-0.6h-0.2l-0.6 0.7-0.9 1.1-1.1 0.8-1.1 0.5-1 0.3-1.4 0.4-1.1-0.1-0.6-0.2-0.1-1-0.1-1.2 0.1-1.5v-1.7-0.6zm1.9 12.8q-0.5-0.5-0.7-1-0.3-0.5-0.1-1.1 0.3-0.6 0.9-1.1 0.6-0.5 1.1-0.8 0.6-0.3 1.1-0.1 0.5 0.3 1.1 0.8 0.5 0.5 0.7 1.1 0.3 0.5 0.1 1-0.2 0.5-0.7 1.1-0.6 0.5-1.2 0.8-0.5 0.3-1.2 0-0.6-0.2-1.1-0.7zm5.2 0q-0.4-0.5-0.7-1-0.3-0.5 0-1.1 0.2-0.6 0.8-1.1 0.6-0.5 1.1-0.8 0.6-0.3 1.1-0.1 0.6 0.3 1.1 0.8 0.6 0.5 0.8 1.1 0.2 0.5 0 1-0.1 0.5-0.7 1.1-0.5 0.5-1.1 0.8-0.6 0.3-1.3 0-0.6-0.2-1.1-0.7zm8.9-17.3l-0.1-0.8q0.8-2.7 1.5-3.7 0.7-1.1 1.6-1.7 1-0.7 3.4-0.6l3.4 0.8 2.6 1 2.4 0.6 2.8 0.7 2.5 0.1 1.7 0.1 0.5 1.2 0.1 1.9-0.3 1.8-0.6 0.9-1.4 0.1h-1.6l-0.1 0.3 0.7 0.6 1.3 0.5 1.3 0.3h1.1l0.5 1.2v2.7l-0.1 1.4-0.2 0.8-0.8 0.4h-1.5q-1.6-0.3-2.3-0.8-0.7-0.5-1.2-1.3-0.4-0.8-1-2.6l-0.3-1.8-0.2-0.8h-0.4l-0.7 0.6-1.8 1.6-1.8 1.3-2.4 1.4-2 1.1-2.3 0.9-1.6 0.4-1.6 0.1-1.6-0.1-0.6-0.2-0.2-2.2v-2l0.2-1.6 1-0.2h1.9l2.6-0.2 1.8-0.7 2-0.8 1.6-1 1.1-0.7 0.6-0.8-2.4-0.4-2.6-0.5-2.6-0.4h-1.1l-1.3 0.5-0.7 0.8zm23.6 5.5l0.2-0.9 1.1-0.3 1.8 0.1 1.8-0.3 0.6-0.5v-1-1.2l0.4-1.9 1.1-1.8 1.3-0.9 1.5-0.2 1.5 0.3 1.4 0.8 1.3 1.3q1.7 2.9 1.8 5.8v2.5l-0.5 2.1-0.6 1.1-0.9 0.8-1.4 0.5-1.6-0.2-1.7-0.7-1.4-1.3-0.8-0.9-0.3-0.5-0.6 0.4-0.6 0.6-1.3 0.8-1.1 0.5-1 0.1h-1.3l-0.5-0.2-0.3-1v-2zm9.1-4.3l0.1 1.3 0.7 1.7 1 1.3 1.3 0.8h1l0.5-0.5 0.2-1.1-0.1-1.4-0.8-1.7-0.8-1.1-1.3-1h-1.1l-0.6 0.8zm32.5 0.4l-0.2 1.8-0.5 1.2-0.1 2 0.9 2.2 1.9 2.3 3.2 1.9 4.3 0.6h4l3.2-0.6 2.7-0.9 1-1v-1.1l-0.5-1-0.8-0.3-1.9 0.2h-2.2l-2.2-0.4-0.9-0.4-1.3-0.7-1-1.4-0.6-1.7 0.3-1.9 1.1-3.2 1.4-2.8 1.5-2.1 2.4-2.1 1.4-0.8 1.5-0.1 1.6 0.1 1.5 0.8 1.1 1.1 1.1 1.2 0.3 0.9 0.1 1.4-0.5 0.9h-1.1l-1.4-0.4-2-0.4h-1.8l-1.7 0.4-1.6 0.9-1.2 0.9-0.4 1-0.1 1.1 0.6 0.8 1.6 0.4 1.8 0.4 1.9 0.2 1.6 0.8 1.8 0.6 0.9 1.1 0.3 1.6v2.1l-0.3 1.7-1 2.6-1.3 1.6-2 1.4-2.3 1.4-2.6 0.8-2.7 0.5-2.6 0.3-3-0.4-2.2-0.4-1.9-0.8-2.2-1.2-1.4-1.2-1.2-1.7-0.6-1.9-0.1-2.4 0.3-2.9 0.8-2.1 0.9-2.5 0.8-1.3h1.1zm38.1 1.7v-0.6l0.4-1.2 1.5-2 1.1-1.3 0.6-0.1 1.2 0.9 1.2 1.6 0.5 1.6 0.5 1.7 0.2 1.9-0.3 2.1-0.8 2.3-1.3 2.4-1.5 2.5-1.7 2.1-1.7 1.4-1.6 0.8h-2.9l-2.4-0.1-2.1-0.3-1.8-0.6-0.9-0.5-0.1-1.2 1.1-0.6 2.8-1 2.5-1.2 2.6-1.3 2.4-1.2 2.6-1.9 1.4-1.8 0.3-0.8v-0.7l-0.5-0.6-1-0.4-1.1-0.4-1-0.9zm18.8 7.3l-1.4-0.7-1.7-2-0.9-2.2-0.5-3.2-0.8-14.8 0.1-0.7 3.2-3 1.1-0.2 0.7 0.5 0.5 0.9-0.4 15.8 0.3 1.6 0.9 1 0.6 0.7h0.8l0.4 0.2v6l-0.8 0.7zm3.3-2.5l-0.1-1v-1.5-1l0.6-0.2h1.1l1.1-0.3 0.1-1.1 0.5-2.5 0.6-1.7 1.1-1.6 1.5-1 1.4-0.1 2 0.6 1.3 1.3 1.3 2.6 0.9 1.9 0.3 0.7 0.7 0.9 1.5 0.2 0.7 0.1 0.3 0.5 0.1 1.9v2.1l-0.2 1.9h-0.9-0.7l-1.2-0.8-0.6-0.9-0.3-0.1-0.5 0.5-0.4 0.6-1.1 0.7-1 0.5h-1-1l-0.8-0.6-0.9-0.8-0.8-0.7-0.3-0.5-0.5 0.3-0.8 0.6-0.8 0.7-0.8 0.5h-1l-1-0.2-0.3-0.8zm6.4-6.5v1.2l0.5 1.2 0.9 0.9 1.2 0.6h1.2l0.5-0.3 0.6-0.8v-1.6l-0.8-1.5-1.3-1-1.3-0.5-0.6 0.2-0.5 0.6zm10.7 4.2l0.1-0.8 0.5-0.3 1-0.2 1.4 0.2 1.2-0.3 0.8-0.5 0.3-0.5-0.1-0.5-1-0.6-1-0.3-1.3-0.8-0.7-0.8 0.2-1.2 1.3-1.9 2-1.6 2.4-0.7 2.6-0.1 2.2 1 1.3 1.4 0.5 1.6 0.1 1.2-0.6 1-1.3 1.3-1 0.6-0.9 1.1 0.6 0.5 1.3 0.1h1.6l2-0.1 1 0.2 0.2 1.1-0.1 1.3 0.1 2.2-0.3 1.2-1.5 0.2h-2.1l-1.3-0.3-1.3-1-0.9-0.9-0.8-1.5-0.4-0.5h-0.7l-0.6 1.1-1.3 1.5-0.9 0.8-1.5 0.5-1.5 0.4h-1l-0.5-0.3-0.1-1.2zm16.8-0.1l0.2-1 1.2-0.2h1.8l1.7-0.2 0.6-0.6v-0.9-1.2l0.4-1.9 1.1-1.8 1.4-0.9 1.4-0.2 1.6 0.2 1.4 0.8 1.2 1.4q1.7 2.8 1.8 5.8v2.5l-0.5 2-0.6 1.2-0.9 0.8-1.3 0.4-1.7-0.2-1.6-0.7-1.5-1.2-0.7-0.9-0.4-0.5-0.6 0.3-0.6 0.7-1.3 0.8-1 0.5-1.1 0.1-1.3-0.1-0.5-0.2-0.2-0.9-0.1-2zm9.2-4.4v1.3l0.7 1.8 1 1.2 1.3 0.8 1.1 0.1 0.5-0.5 0.1-1.2-0.1-1.3-0.8-1.8-0.8-1.1-1.3-0.9h-1.1l-0.6 0.7zm32.5 0.5l-0.2 1.7-0.4 1.2-0.1 2.1 0.8 2.1 1.9 2.3 3.3 1.9 4.2 0.6h4.1l3.1-0.6 2.8-0.9 0.9-0.9v-1.2l-0.4-0.9-0.8-0.4-1.9 0.3h-2.2l-2.2-0.5-1-0.4-1.3-0.7-1-1.4-0.6-1.6 0.3-2 1.1-3.1 1.4-2.9 1.6-2 2.3-2.2 1.5-0.8 1.5-0.1 1.5 0.2 1.5 0.7 1.2 1.2 1 1.2 0.4 0.9v1.4l-0.5 0.8h-1.1l-1.4-0.4-2-0.4h-1.8l-1.7 0.4-1.5 0.9-1.2 1-0.5 1-0.1 1 0.6 0.9 1.6 0.4 1.9 0.4 1.9 0.2 1.6 0.7 1.8 0.6 0.9 1.2 0.3 1.5v2.2l-0.3 1.6-1 2.6-1.4 1.7-1.9 1.4-2.3 1.3-2.6 0.8-2.8 0.6-2.6 0.2-3-0.3-2.2-0.5-1.9-0.8-2.2-1.1-1.4-1.3-1.1-1.7-0.7-1.9v-2.4l0.3-2.8 0.7-2.1 0.9-2.5 0.9-1.4 1 0.1zm36.1 9l-1.5-0.8-1.7-2-0.9-2.2-0.5-3.2-0.8-14.8 0.1-0.7 3.3-3 1-0.2 0.7 0.5 0.6 0.9-0.5 15.9 0.4 1.6 0.8 0.9 0.7 0.7h0.7l0.4 0.2v6.1l-0.8 0.6zm14.1-6.7l1.6 0.5 2.4 0.3 2.5-0.4 2.8-0.7 1.4-0.4 0.6-0.8-0.2-0.8-0.6-0.9-1.6-0.7h-1.7l-2.4 0.5-1.7 0.9-1.9 1.2zm9.6 5l-1.9 0.9-2.2 0.4-2.2 0.2-2.3 0.1-2.1-0.3-1.8-0.4-1.4-0.5-1.2-0.8-0.8-0.6-0.2 0.1-0.5 1.4-0.8 0.7-1.5 0.6h-1.2l-0.3-0.9-0.1-1.8v-1.9l0.2-1.4 0.2-0.2 1.2-0.2 0.9-1.2 0.1-0.8-0.2-1.5v-1l0.6-0.4 1 0.3 1 1.3 0.8 1.4 1.3 0.8 1.6 0.3 0.9-0.9 1.9-2.3 2.4-2.1 2.2-1.5 3.6-1.9 2.5-0.3 2.1 0.5 1.6 1.1 0.9 1.5 0.2 2.1-0.5 2.7-0.9 1.4 1.4 0.6h1.1l0.6 0.2 0.5 0.2v1.3l0.2-1.1 0.8-0.6h3.7l1.7-0.2 2.3-0.7 1.7-0.8 0.8-0.8v-0.3h-1.4l-1.9 0.3h-1.9l-1.8-0.1-1.2-0.5-1.2-0.9-0.6-0.9-0.1-1 0.4-2.3 0.6-2.1 1.1-2.6 1.9-2.1 1.4-0.2 1.8 0.2 1.8 0.8 1.5 1.6 1.3 2.1 0.7 2.5 0.2 1.9v2.6l-0.4 2.6-0.9 2.5q-1.5 2.6-3.8 3.7l-1.9 0.6-2.4 0.4h-2.1l-1.4-0.3-0.6-0.3-0.2-0.8v-0.7 0.7l-0.4 1-2 0.2-2.9-0.5-2.3-0.6zm-9-17.7q-0.5-0.5-0.8-1-0.2-0.4 0-1 0.2-0.7 0.8-1.2 0.6-0.5 1.2-0.8 0.5-0.3 1.1 0 0.5 0.2 1 0.7 0.6 0.5 0.8 1.1 0.2 0.5 0.1 1-0.2 0.5-0.7 1.1-0.6 0.6-1.2 0.8-0.6 0.3-1.2 0-0.7-0.2-1.1-0.7zm21.8 4.6l0.4 1 0.7 0.7 1.1 0.2 1.4 0.3 1.3-0.3 0.6-0.3v-0.8l-0.9-1.2-1.3-0.7-0.9-0.2-1.3 0.2-0.9 0.4zm-0.5-13.4q0.5-0.5 1.1-0.8 0.6-0.2 1.2 0 0.6 0.3 1.2 0.8 0.5 0.6 0.7 1.1 0.2 0.5-0.1 1.1-0.2 0.5-0.7 1-0.6 0.5-1.1 0.8-0.6 0.2-1.1-0.1-0.6-0.2-1.1-0.8-0.6-0.5-0.9-1.1-0.2-0.6 0.1-1.1 0.2-0.5 0.7-0.9z"/></svg>