<svg version="1.2" xmlns="http://www.w3.org/2000/svg" viewBox="0 0 354 74" width="354" height="74"><style>.a{fill:#050505}</style><path class="a" d="m208.4 34.7h-29.5l29.5-14.7v-19.7l-49.1 24.6v-24.6l-19.7 19.7v54h68.8zm-72.5 0v39.3h-19.6v-39.3zm-52.8 0h29.4v39.3h-68.7v-54l19.6-19.7v13.2l24.6-13.2h10.9l-35.5 19.7v4.9l49.1-24.6v19.7zm-82.2 0v39.3h39.3v-39.3zm323.1 0h29.4v39.3h-68.6v-54l19.6-19.7v24.6l49-24.6v19.7zm-49.1 15l-26.8-6.7v-23.7l33 6.8v47.8l-33.1-6.3v6.3h-35.5v-18.7-4.9-15.7l62.3 16.1z"/></svg>