<svg version="1.2" xmlns="http://www.w3.org/2000/svg" viewBox="0 0 297 79" width="297" height="79"><style>.a{fill:#050505}</style><path fill-rule="evenodd" class="a" d="m231.5 62.2h3.5l0.1-17.8 8.1-4.9-8.2-2.2 0.1-18 61 14.1v44.8h-85.4v-57.7l20.7-20.1zm-25-62l0.1 77.9h-45v-40.8l20.5 7v18.1h3.8l-0.1-42.2zm44.8 54.8h27.5v-4.2h-27.5zm-205.6-55v56.9l14.3-6.3h51.4v-6.3l21.5-6.9v40.3h-5.5-73.9l0.1-9.2 0.1-2.9-28.8 12.2v-57.2zm111.9 0.3v77.8h-20.8v-57.7zm-136.6 37.2v8.9l-10 4.4v3.5l10-4v20.6l-20.8 7.3v-31.5z"/></svg>